<svg width="64" height="64" viewBox="0 0 64 64" fill="none" xmlns="http://www.w3.org/2000/svg">
  <!-- Ракета -->
  <path d="M32 8 L38 28 L42 28 L42 38 L38 42 L26 42 L22 38 L22 28 L26 28 Z" fill="#00D9FF" stroke="#0891b2" stroke-width="2"/>
  <ellipse cx="32" cy="20" rx="6" ry="8" fill="#9D4EDD"/>
  <circle cx="32" cy="24" r="3" fill="#fff" opacity="0.7"/>

  <!-- Крылья -->
  <path d="M22 28 L14 34 L22 38 Z" fill="#f59e0b"/>
  <path d="M42 28 L50 34 L42 38 Z" fill="#f59e0b"/>

  <!-- Огонь -->
  <path d="M26 42 L24 50 L28 46 L26 54 L32 48" fill="#ef4444" opacity="0.8"/>
  <path d="M32 48 L32 56 L34 48" fill="#f59e0b" opacity="0.8"/>
  <path d="M32 48 L38 54 L36 46 L40 50 L38 42" fill="#ef4444" opacity="0.8"/>
</svg>
