<svg width="192" height="192" viewBox="0 0 192 192" fill="none" xmlns="http://www.w3.org/2000/svg">
  <defs>
    <linearGradient id="iconGradient" x1="0%" y1="0%" x2="100%" y2="100%">
      <stop offset="0%" style="stop-color:#6366F1;stop-opacity:1" />
      <stop offset="100%" style="stop-color:#8B5CF6;stop-opacity:1" />
    </linearGradient>
    <linearGradient id="circleGradient" x1="0%" y1="0%" x2="100%" y2="100%">
      <stop offset="0%" style="stop-color:#10B981;stop-opacity:1" />
      <stop offset="100%" style="stop-color:#06B6D4;stop-opacity:1" />
    </linearGradient>
  </defs>

  <rect width="192" height="192" rx="40" fill="url(#iconGradient)"/>

  <!-- Circular arrows (arbitrage symbol) -->
  <g transform="translate(96, 96)">
    <!-- Top arrow -->
    <path d="M 0 -48 A 48 48 0 0 1 41.57 -24 L 34.6 -15.4 L 48 -28.8 L 44.2 -44.2 L 37.4 -35.5 A 48 48 0 0 0 0 -57.6 Z"
          fill="#FFFFFF" opacity="0.95"/>

    <!-- Right arrow -->
    <path d="M 48 0 A 48 48 0 0 1 24 41.57 L 15.4 34.6 L 28.8 48 L 44.2 44.2 L 35.5 37.4 A 48 48 0 0 0 57.6 0 Z"
          fill="#FFFFFF" opacity="0.95"/>

    <!-- Left arrow -->
    <path d="M -48 0 A 48 48 0 0 1 -24 -41.57 L -15.4 -34.6 L -28.8 -48 L -44.2 -44.2 L -35.5 -37.4 A 48 48 0 0 0 -57.6 0 Z"
          fill="#FFFFFF" opacity="0.95"/>

    <!-- Center circle with gradient -->
    <circle cx="0" cy="0" r="15" fill="url(#circleGradient)" opacity="0.9"/>

    <!-- Currency symbol -->
    <text x="0" y="7" font-size="22" font-weight="bold" text-anchor="middle" fill="#FFFFFF">₿</text>
  </g>
</svg>
